# xmcd CD database file
#
# Track frame offsets:
#	150
#	27704
#	64963
#	98878
#	133544
#	174087
#
# Disc length: 3025 seconds
#
# Revision: 0
# Processed by: cddbd v1.5.1PL0 Copyright (c) Steve Scherf et al.
# Submitted via: CDex 1.51
#
DISCID=4d0bcf06
DTITLE=Sonia Loinsworth - Songs of Compation II - Tibetan Mantras
DYEAR=2004
DGENRE=New Age
TTITLE0=Calling
TTITLE1=Mantra III
TTITLE2=Mantra IV
TTITLE3=Mantra V
TTITLE4=Mantra I
TTITLE5=Mantra II
EXTD=YEAR: 2004
EXTT0=
EXTT1=
EXTT2=
EXTT3=
EXTT4=
EXTT5=
PLAYORDER=
